<svg width="66" height="66" viewBox="0 0 66 66" fill="none" xmlns="http://www.w3.org/2000/svg">
<path d="M6.60156 57.7578V58.3711H3.52344V57.7578H6.60156ZM3.64062 55.3125V61H2.88672V55.3125H3.64062ZM7.25781 55.3125V61H6.50781V55.3125H7.25781ZM12.9766 57.9766V58.3359C12.9766 58.763 12.9232 59.1458 12.8164 59.4844C12.7096 59.8229 12.556 60.1107 12.3555 60.3477C12.1549 60.5846 11.9141 60.7656 11.6328 60.8906C11.3542 61.0156 11.0417 61.0781 10.6953 61.0781C10.3594 61.0781 10.0508 61.0156 9.76953 60.8906C9.49089 60.7656 9.2487 60.5846 9.04297 60.3477C8.83984 60.1107 8.68229 59.8229 8.57031 59.4844C8.45833 59.1458 8.40234 58.763 8.40234 58.3359V57.9766C8.40234 57.5495 8.45703 57.168 8.56641 56.832C8.67839 56.4935 8.83594 56.2057 9.03906 55.9688C9.24219 55.7292 9.48307 55.5469 9.76172 55.4219C10.043 55.2969 10.3516 55.2344 10.6875 55.2344C11.0339 55.2344 11.3464 55.2969 11.625 55.4219C11.9062 55.5469 12.1471 55.7292 12.3477 55.9688C12.5508 56.2057 12.7057 56.4935 12.8125 56.832C12.9219 57.168 12.9766 57.5495 12.9766 57.9766ZM12.2305 58.3359V57.9688C12.2305 57.6302 12.1953 57.3307 12.125 57.0703C12.0573 56.8099 11.957 56.5911 11.8242 56.4141C11.6914 56.237 11.5286 56.1029 11.3359 56.0117C11.1458 55.9206 10.9297 55.875 10.6875 55.875C10.4531 55.875 10.2409 55.9206 10.0508 56.0117C9.86328 56.1029 9.70182 56.237 9.56641 56.4141C9.43359 56.5911 9.33073 56.8099 9.25781 57.0703C9.1849 57.3307 9.14844 57.6302 9.14844 57.9688V58.3359C9.14844 58.6771 9.1849 58.9792 9.25781 59.2422C9.33073 59.5026 9.4349 59.7227 9.57031 59.9023C9.70833 60.0794 9.87109 60.2135 10.0586 60.3047C10.2487 60.3958 10.4609 60.4414 10.6953 60.4414C10.9401 60.4414 11.1576 60.3958 11.3477 60.3047C11.5378 60.2135 11.6979 60.0794 11.8281 59.9023C11.9609 59.7227 12.0612 59.5026 12.1289 59.2422C12.1966 58.9792 12.2305 58.6771 12.2305 58.3359ZM16.0977 55.3125V61H15.3555V55.3125H16.0977ZM17.9258 55.3125V55.9297H13.5312V55.3125H17.9258ZM22.3828 60.3867V61H19.3711V60.3867H22.3828ZM19.5234 55.3125V61H18.7695V55.3125H19.5234ZM21.9844 57.7578V58.3711H19.3711V57.7578H21.9844ZM22.3438 55.3125V55.9297H19.3711V55.3125H22.3438ZM26.7656 60.3867V61H23.9219V60.3867H26.7656ZM24.0703 55.3125V61H23.3164V55.3125H24.0703ZM30.6602 59.5625C30.6602 59.4297 30.6393 59.3125 30.5977 59.2109C30.5586 59.1068 30.4883 59.013 30.3867 58.9297C30.2878 58.8464 30.1497 58.7669 29.9727 58.6914C29.7982 58.6159 29.5768 58.5391 29.3086 58.4609C29.0273 58.3776 28.7734 58.2852 28.5469 58.1836C28.3203 58.0794 28.1263 57.9609 27.9648 57.8281C27.8034 57.6953 27.6797 57.543 27.5938 57.3711C27.5078 57.1992 27.4648 57.0026 27.4648 56.7812C27.4648 56.5599 27.5104 56.3555 27.6016 56.168C27.6927 55.9805 27.8229 55.8177 27.9922 55.6797C28.1641 55.5391 28.3685 55.4297 28.6055 55.3516C28.8424 55.2734 29.1068 55.2344 29.3984 55.2344C29.8255 55.2344 30.1875 55.3164 30.4844 55.4805C30.7839 55.6419 31.0117 55.8542 31.168 56.1172C31.3242 56.3776 31.4023 56.6562 31.4023 56.9531H30.6523C30.6523 56.7396 30.6068 56.5508 30.5156 56.3867C30.4245 56.2201 30.2865 56.0898 30.1016 55.9961C29.9167 55.8997 29.6823 55.8516 29.3984 55.8516C29.1302 55.8516 28.9089 55.8919 28.7344 55.9727C28.5599 56.0534 28.4297 56.1628 28.3438 56.3008C28.2604 56.4388 28.2188 56.5964 28.2188 56.7734C28.2188 56.8932 28.2435 57.0026 28.293 57.1016C28.3451 57.1979 28.4245 57.2878 28.5312 57.3711C28.6406 57.4544 28.7786 57.5312 28.9453 57.6016C29.1146 57.6719 29.3164 57.7396 29.5508 57.8047C29.8737 57.8958 30.1523 57.9974 30.3867 58.1094C30.6211 58.2214 30.8138 58.3477 30.9648 58.4883C31.1185 58.6263 31.2318 58.7839 31.3047 58.9609C31.3802 59.1354 31.418 59.3333 31.418 59.5547C31.418 59.7865 31.3711 59.9961 31.2773 60.1836C31.1836 60.3711 31.0495 60.5312 30.875 60.6641C30.7005 60.7969 30.4909 60.8997 30.2461 60.9727C30.0039 61.043 29.7331 61.0781 29.4336 61.0781C29.1706 61.0781 28.9115 61.0417 28.6562 60.9688C28.4036 60.8958 28.1732 60.7865 27.9648 60.6406C27.7591 60.4948 27.5938 60.3151 27.4688 60.1016C27.3464 59.8854 27.2852 59.6354 27.2852 59.3516H28.0352C28.0352 59.5469 28.0729 59.7148 28.1484 59.8555C28.224 59.9935 28.3268 60.1081 28.457 60.1992C28.5898 60.2904 28.7396 60.3581 28.9062 60.4023C29.0755 60.444 29.2513 60.4648 29.4336 60.4648C29.6966 60.4648 29.9193 60.4284 30.1016 60.3555C30.2839 60.2826 30.4219 60.1784 30.5156 60.043C30.612 59.9076 30.6602 59.7474 30.6602 59.5625ZM35.8281 60.3867V61H32.9844V60.3867H35.8281ZM33.1328 55.3125V61H32.3789V55.3125H33.1328ZM40.3047 60.3867V61H37.293V60.3867H40.3047ZM37.4453 55.3125V61H36.6914V55.3125H37.4453ZM39.9062 57.7578V58.3711H37.293V57.7578H39.9062ZM40.2656 55.3125V55.9297H37.293V55.3125H40.2656ZM42.0469 55.3125V61H41.293V55.3125H42.0469ZM45.2539 60.1367L46.9297 55.3125H47.7461L45.6406 61H45.0586L45.2539 60.1367ZM43.6875 55.3125L45.3477 60.1367L45.5547 61H44.9727L42.8711 55.3125H43.6875ZM50.3203 55.8164L48.4375 61H47.668L49.8359 55.3125H50.332L50.3203 55.8164ZM51.8984 61L50.0117 55.8164L50 55.3125H50.4961L52.6719 61H51.8984ZM51.8008 58.8945V59.5117H48.6055V58.8945H51.8008Z" fill="white"/>
<path d="M45.9556 5.76287C45.8943 6.85326 45.7214 7.93449 45.4397 8.98963C45.1372 10.1806 44.7382 11.5305 44.2534 13.0036C43.7686 14.4767 43.209 16.0776 42.5808 17.7814L41.9308 19.5226L41.5676 16.9115C40.7305 9.91712 41.4397 5.73014 43.6751 4.46594C44.2783 4.12456 44.8255 3.9827 45.3243 4.04506C45.7427 4.51826 45.968 5.13137 45.9556 5.76287Z" fill="white"/>
<path d="M43.6111 24.1258C43.5984 24.5514 43.4811 24.9674 43.2697 25.337C43.1457 25.5678 42.9996 25.7861 42.8332 25.9886L42.4529 23.2139C42.6496 23.2406 42.8426 23.2898 43.0281 23.3604C43.4178 23.5116 43.6111 23.7704 43.6111 24.1258Z" fill="white"/>
<path d="M13.9732 36.9893C11.9234 41.1653 9.78626 44.4279 7.58209 46.7381C6.23839 48.1644 4.82454 49.1402 3.37328 49.6422C3.02827 49.7783 2.66081 49.8487 2.2899 49.8495C1.95592 49.8551 1.6245 49.7903 1.3172 49.6593C1.05463 49.5466 0.818393 49.3804 0.623527 49.1714C0.215117 48.7833 0 48.3671 0 47.9337C0 47.5004 0.140293 47.187 0.425557 46.9782C3.16596 45.0109 6.07939 40.3189 9.1035 33.0002C9.59028 33.73 10.1704 34.3929 10.8291 34.9721C11.7737 35.7935 12.8329 36.473 13.9732 36.9893Z" fill="white"/>
<path d="M36.4778 33.9167C36.3625 34.2285 36.2502 34.5402 36.1442 34.824C34.017 34.9829 32.0035 35.0817 30.1038 35.1201L32.8318 27.3634L32.8661 27.2684L32.7663 27.259C30.2722 27.0377 27.8108 26.9239 25.4398 26.9239C22.9586 26.9303 20.4799 27.0833 18.0168 27.3822H17.9684L17.9528 27.4289C17.1578 29.6487 16.3462 31.7157 15.518 33.6299C13.822 33.0999 12.4331 32.4312 11.3653 31.6237C10.9126 31.2851 10.4986 30.8978 10.1307 30.4686C10.3302 29.949 10.5303 29.42 10.7308 28.8817L10.7823 28.743L10.6389 28.7789C10.4752 28.8209 10.3271 28.8615 10.1806 28.902C10.0341 28.9425 9.86882 28.994 9.6615 29.0579C9.49882 29.0952 9.32807 29.0702 9.18294 28.9877C8.84335 28.2327 8.6528 27.4192 8.62176 26.5918C8.62036 26.5393 8.60523 26.4881 8.57788 26.4432C8.55053 26.3984 8.51192 26.3615 8.46588 26.3362C9.23282 25.8327 10.4456 25.3463 12.0792 24.8834L12.1198 24.8725L12.1322 24.8335C14.8414 16.4424 16.2678 10.4129 16.3691 6.90708V6.82291H16.2849C15.4594 6.85932 14.6546 7.09233 13.9373 7.50255L11.624 8.8104C11.0286 9.13775 10.2211 8.86496 9.21567 7.99826C8.22738 7.16896 7.78624 6.37241 7.90315 5.63197C8.03876 4.51586 9.65838 3.57433 12.7152 2.83545C13.8064 2.57513 14.6653 2.44263 15.2841 2.44263C15.903 2.44263 16.5312 2.45666 17.1547 2.48783C17.7184 2.51547 18.2784 2.59532 18.8273 2.72633C20.8195 3.20489 22.0619 4.07003 22.5171 5.29526C22.73 5.94914 22.8312 6.63422 22.8164 7.32173C22.8041 8.26637 22.7229 9.20885 22.5732 10.1416C22.4173 11.2328 22.1757 12.4689 21.8748 13.836C21.2279 16.8258 20.3581 20.0604 19.2888 23.4508L19.2513 23.5662L19.3714 23.5506C23.9244 23.0178 28.5049 22.7539 33.089 22.7603H34.4545L34.6228 22.2583C34.7663 23.6472 34.9502 25.0424 35.1715 26.425C35.4132 27.909 35.8496 30.4218 36.4778 33.9167Z" fill="white"/>
<path d="M38.3002 47.1105C37.7312 47.7515 37.0589 48.2926 36.3112 48.7114C35.0288 49.4907 33.5593 49.9082 32.0587 49.9195C30.0323 49.9195 28.6013 49.0029 27.8063 47.1947C27.5426 46.643 27.3996 46.0415 27.387 45.4301C27.3939 44.0807 27.5976 42.7395 27.9918 41.4489C28.2287 40.6617 28.4813 39.8589 28.7494 39.0483C30.6626 38.9548 32.6953 38.7672 34.8475 38.4856C34.6209 39.158 34.4578 39.6745 34.358 40.0351C33.9527 41.5066 33.7469 42.5292 33.7469 43.0545C33.7469 44.1971 34.2146 44.7692 35.1327 44.7692C35.9542 44.7692 36.6323 44.6336 37.1467 44.3655L38.1147 43.8822C38.2331 44.9543 38.295 46.0319 38.3002 47.1105Z" fill="white"/>
<path d="M54.3211 15.2156C54.0967 17.5959 53.509 19.5803 52.5784 21.1282C52.1279 21.8422 51.6431 22.3488 51.1349 22.6372C50.6744 22.9104 50.1545 23.0682 49.6198 23.097C49.1247 23.1178 48.6294 23.0621 48.1513 22.9318C47.1911 22.6387 46.566 22.2459 46.2932 21.7642C46.0376 21.309 45.9706 20.9599 46.0984 20.7276C47.468 18.2551 48.4038 15.5662 48.8653 12.7776C49.3532 9.81588 49.0492 7.33736 47.9643 5.41845C47.1054 3.90016 46.1155 3.40602 45.188 3.40602C45.1381 3.40602 45.0898 3.40602 45.0321 3.40602L44.923 3.41381L44.817 3.42628C44.338 3.50022 43.8773 3.66418 43.4593 3.90952C40.948 5.33116 40.1577 9.60388 41.04 16.9786L41.5638 20.7385L41.5872 20.9022L41.609 21.0581L41.874 22.9583L41.8849 23.0378L41.8974 23.1173L42.3744 26.5467L42.3868 26.6386L42.3993 26.7322L42.9387 30.5965C43.1101 31.8155 43.2556 32.9851 43.3751 34.1054L42.9184 34.1599C40.9886 34.3875 39.1331 34.5751 37.3519 34.7227C37.2479 34.1407 37.1476 33.5837 37.051 33.0516C37.0416 33.0017 37.0323 32.9503 37.0245 32.8957L36.9964 32.7399C36.468 29.789 36.0954 27.6332 35.8834 26.3019C35.5888 24.4672 35.3628 22.6122 35.2069 20.779C35.2069 20.7136 35.196 20.6465 35.1913 20.5811C35.1867 20.5156 35.1789 20.4501 35.1742 20.3847C35.1648 20.2709 35.1555 20.1586 35.1477 20.0464C34.9932 18.0352 34.9599 16.0165 35.0479 14.0013C35.1214 12.1672 35.4076 10.3478 35.9006 8.57973C36.9014 5.01784 38.7984 2.42708 41.5388 0.876057C42.5308 0.303184 43.6559 0.00107275 44.8014 0C45.8167 0.0120956 46.8199 0.221212 47.7554 0.615735C49.8011 1.45194 51.4958 2.96821 52.5534 4.90872C54.1029 7.65068 54.6984 11.1175 54.3211 15.2156Z" fill="white"/>
<path d="M65.5358 41.0732C65.5168 41.1977 65.4669 41.3155 65.3906 41.4157C65.3144 41.5159 65.2142 41.5954 65.0993 41.6469C64.7433 41.8436 64.3447 41.9506 63.938 41.9587C63.3981 41.9786 62.8599 42.0306 62.3261 42.1145C61.6699 42.2242 61.02 42.3688 60.3792 42.5479C58.7201 42.9887 57.1244 43.6404 55.631 44.4871C54.1753 45.307 52.7812 46.2317 51.4596 47.254C50.2001 48.2345 49.0092 49.1962 47.9211 50.116L44.8783 52.7114C44.2046 53.3043 43.4824 53.8398 42.7193 54.3123C42.2517 54.5788 41.8293 54.6833 41.4723 54.624C41.0414 54.5437 40.6248 54.3997 40.2361 54.1969C39.3009 53.7153 38.7038 53.2398 38.4451 52.7831C38.0367 52.0598 37.9291 51.5173 38.1208 51.1837C38.696 50.2749 38.9595 48.7348 38.9111 46.5307V46.3888C38.9111 46.3358 38.9111 46.2828 38.9111 46.2329C38.8862 45.4613 38.8223 44.6133 38.7241 43.6858L38.7147 43.6079C38.7147 43.5814 38.7147 43.5564 38.7069 43.5299C38.5469 42.075 38.2991 40.4305 37.9634 38.5963C37.9291 38.4092 37.8964 38.2253 37.8621 38.0429C39.6828 37.7498 41.5788 37.3965 43.5502 36.9829C43.9446 42.3109 43.6733 46.3358 42.738 48.9749L42.1925 50.5103L43.2665 49.2835C46.1799 45.9508 50.013 42.6461 54.6614 39.463C55.2988 39.0088 55.9584 38.5869 56.638 38.1988C57.3491 37.808 58.1116 37.5189 58.903 37.3399C59.7015 37.1384 60.5314 37.0928 61.3472 37.2058C63.0214 37.4583 64.2918 38.3858 65.2302 40.0444C65.4656 40.4591 65.5685 40.8067 65.5358 41.0732Z" fill="white"/>
<path d="M37.131 37.527C36.4888 37.6309 35.8606 37.7219 35.2464 37.7998L35.1576 37.8123L35.0703 37.8248C32.8567 38.1194 30.824 38.3095 28.9581 38.4077H28.874H28.7913C22.0089 38.7491 17.4478 37.8762 14.3879 36.4842C14.3643 36.4754 14.3414 36.465 14.3193 36.453L14.2445 36.4187C13.1688 35.9301 12.1692 35.2891 11.2765 34.5154C10.5434 33.8723 9.91722 33.1167 9.42148 32.2769C9.40433 32.2489 9.38874 32.2208 9.37316 32.1927C9.35757 32.1647 9.33886 32.1351 9.32327 32.1055C8.6916 30.9616 8.31909 29.693 8.2321 28.3892L8.22275 28.2521V28.1102C8.22197 28.1029 8.22197 28.0956 8.22275 28.0884C8.22347 28.0993 8.22347 28.1102 8.22275 28.1211C8.24145 28.1897 8.26016 28.2583 8.28042 28.3269C8.30069 28.3955 8.31628 28.4531 8.33498 28.5139C8.6309 29.4341 9.11863 30.281 9.76598 30.9987C9.78312 31.0205 9.80339 31.0408 9.82365 31.0626C9.84215 31.0845 9.86193 31.1054 9.88289 31.125C10.2232 31.4917 10.5957 31.8271 10.9959 32.1273C12.1151 32.9722 13.5388 33.671 15.267 34.2239L15.345 34.2488L15.4167 34.2706C18.9537 35.3727 23.7314 35.8731 29.722 35.7671H29.8872C31.7775 35.7297 33.7879 35.6331 35.9183 35.4772H36.0024H36.0866L36.7569 35.4242C36.8691 36.0851 36.997 36.7897 37.131 37.527Z" fill="white"/>
<path d="M43.4972 36.3563C41.4665 36.7835 39.5502 37.1409 37.7482 37.4288C37.6173 36.7086 37.491 36.0165 37.3726 35.3571C39.1392 35.2085 40.9838 35.0204 42.9064 34.7928L43.3506 34.7383C43.4052 35.2901 43.4551 35.8295 43.4972 36.3563Z" fill="white"/>
<path d="M61.7417 31.0641C61.741 31.0683 61.741 31.0725 61.7417 31.0766L61.8617 31.3603L62.0176 31.722L62.1049 31.9262C62.1174 31.9542 62.1299 31.9838 62.1408 32.0119C62.3497 32.5029 62.557 32.9908 62.6084 33.1218L62.6754 33.2777C62.7004 33.3353 62.6755 33.3961 62.6037 33.4335L62.3824 33.5676C62.2761 33.6471 62.1591 33.7112 62.0348 33.7578C62.0254 33.75 61.6466 33.3057 61.1899 32.7695L60.8781 32.3969L60.6583 32.1397C60.476 31.9262 60.3575 31.789 60.3466 31.7859C60.115 31.9047 59.8898 32.0353 59.6716 32.1771C59.0481 32.5544 59.0122 32.5809 59.0138 32.6136C59.0138 32.6136 59.0138 32.6245 59.0138 32.637C59.0138 32.6869 59.0418 32.8038 59.0668 32.93V32.9456L59.1026 33.1296C59.106 33.1582 59.1003 33.1871 59.0863 33.2123C59.0723 33.2375 59.0508 33.2576 59.0247 33.2699L58.8517 33.3743C58.7958 33.4108 58.7313 33.4318 58.6646 33.4351C58.6196 33.4376 58.5745 33.4308 58.5322 33.4153C58.4898 33.3997 58.4511 33.3757 58.4183 33.3447L58.2874 33.1888L58.0676 32.9332L58.0177 32.8755C57.9853 32.8422 57.9451 32.8175 57.9008 32.8038L57.6654 32.729C52.6616 34.2067 48.1566 35.3556 44.1162 36.2254C44.0746 35.7162 44.0263 35.1966 43.9712 34.6666C48.8581 34.0602 53.48 33.2855 57.2211 32.5918C56.9842 32.5154 56.8127 32.4593 56.8127 32.4562C56.8127 32.453 56.9141 32.3876 57.0466 32.3081L57.0731 32.2909L57.2383 32.1896C57.3088 32.1513 57.389 32.1345 57.469 32.1413L57.8041 32.1662H57.8478L58.2266 32.1943C58.3066 32.202 58.3871 32.1851 58.4573 32.146L58.7161 31.9901L59.0278 31.8015L59.4814 31.5209C59.6373 31.4242 59.6794 31.3899 59.6685 31.3853L58.0208 30.8537L56.7286 30.4391C56.5633 30.3861 56.529 30.2504 56.6615 30.1694L56.7301 30.1273L56.953 29.9917C57.035 29.9474 57.1294 29.9321 57.2211 29.948L59.073 30.2473L60.9249 30.5451C61.0166 30.561 61.1111 30.5456 61.193 30.5014L61.9974 30.0135C62.6396 29.6222 62.9327 29.4492 62.9888 29.4321C63.0509 29.4159 63.1147 29.407 63.179 29.4056C63.303 29.3939 63.4273 29.4235 63.5328 29.4897C63.6232 29.5505 63.6528 29.5957 63.6528 29.6737C63.6528 29.7953 63.6637 29.7875 62.6334 30.4172L61.8165 30.9161C61.7889 30.9283 61.7663 30.9497 61.7527 30.9767C61.739 31.0037 61.7352 31.0346 61.7417 31.0641Z" fill="white"/>
<path d="M5.25781 63.2849C5.25781 63.2849 18.6028 66.8141 49.7792 63.8523C49.7792 63.8523 7.81271 67.0822 5.25781 63.2849Z" fill="white"/>
</svg>
